<mxfile host="app.diagrams.net" modified="2021-06-15T11:43:30.174Z" agent="5.0 (Windows NT 10.0; Win64; x64) AppleWebKit/537.36 (KHTML, like Gecko) Chrome/91.0.4472.77 Safari/537.36" etag="oatlF94H-nGoSkGBq8r9" version="14.7.7" type="github">
  <diagram id="6a731a19-8d31-9384-78a2-239565b7b9f0" name="Page-1">
    <mxGraphModel dx="782" dy="436" grid="1" gridSize="10" guides="1" tooltips="1" connect="1" arrows="1" fold="1" page="1" pageScale="1" pageWidth="1169" pageHeight="827" background="none" math="0" shadow="0">
      <root>
        <mxCell id="0" />
        <mxCell id="1" parent="0" />
        <mxCell id="2" value="开始" style="shape=mxgraph.flowchart.terminator;strokeWidth=2;gradientColor=none;gradientDirection=north;fontStyle=0;html=1;" parent="1" vertex="1">
          <mxGeometry x="260" y="60" width="120" height="30" as="geometry" />
        </mxCell>
        <mxCell id="4" value="生成公共PB对象" style="rounded=1;whiteSpace=wrap;html=1;absoluteArcSize=1;arcSize=14;strokeWidth=2;fillColor=#1681B5;fontColor=#FFFFFF;strokeColor=#10739E;" parent="1" vertex="1">
          <mxGeometry x="240.5" y="510" width="159" height="80" as="geometry" />
        </mxCell>
        <mxCell id="5" value="获取实验信息" style="shape=mxgraph.flowchart.data;strokeWidth=2;gradientDirection=north;fontStyle=0;html=1;strokeColor=#10739e;fillColor=#1681B5;fontColor=#FFFFFF;" parent="1" vertex="1">
          <mxGeometry x="239.5" y="250" width="159" height="80" as="geometry" />
        </mxCell>
        <mxCell id="6" value="使用统一&lt;br&gt;监测上报" style="shape=mxgraph.flowchart.decision;strokeWidth=2;gradientDirection=north;fontStyle=0;html=1;strokeColor=#d6b656;fillColor=#fff2cc;" parent="1" vertex="1">
          <mxGeometry x="271" y="390" width="98" height="57" as="geometry" />
        </mxCell>
        <mxCell id="7" style="fontStyle=1;strokeColor=#003366;strokeWidth=1;html=1;" parent="1" source="2" edge="1">
          <mxGeometry relative="1" as="geometry">
            <mxPoint x="320" y="130" as="targetPoint" />
          </mxGeometry>
        </mxCell>
        <mxCell id="9" style="entryX=0.5;entryY=0;entryPerimeter=0;fontStyle=1;strokeColor=#003366;strokeWidth=1;html=1;" parent="1" source="5" target="6" edge="1">
          <mxGeometry relative="1" as="geometry" />
        </mxCell>
        <mxCell id="10" value="" style="edgeStyle=elbowEdgeStyle;elbow=horizontal;exitX=1;exitY=0.5;exitPerimeter=0;fontStyle=1;strokeColor=#003366;strokeWidth=1;html=1;" parent="1" source="6" target="noWKgFkb6oJTjKW2lA6C-72" edge="1">
          <mxGeometry x="381" y="28.5" width="100" height="100" as="geometry">
            <mxPoint x="750" y="447" as="sourcePoint" />
            <mxPoint x="380" y="980" as="targetPoint" />
            <Array as="points">
              <mxPoint x="750" y="820" />
              <mxPoint x="490" y="970" />
              <mxPoint x="720" y="820" />
            </Array>
          </mxGeometry>
        </mxCell>
        <mxCell id="11" value="no" style="text;fontStyle=0;html=1;strokeColor=none;gradientColor=none;fillColor=none;strokeWidth=2;" parent="1" vertex="1">
          <mxGeometry x="370" y="390" width="40" height="26" as="geometry" />
        </mxCell>
        <mxCell id="12" value="" style="edgeStyle=elbowEdgeStyle;elbow=horizontal;fontColor=#001933;fontStyle=1;strokeColor=#003366;strokeWidth=1;html=1;" parent="1" source="6" target="4" edge="1">
          <mxGeometry width="100" height="100" as="geometry">
            <mxPoint y="100" as="sourcePoint" />
            <mxPoint x="100" as="targetPoint" />
          </mxGeometry>
        </mxCell>
        <mxCell id="13" value="定向包校验" style="shape=mxgraph.flowchart.data;strokeWidth=2;gradientDirection=north;fontStyle=0;html=1;fillColor=#b1ddf0;strokeColor=#10739e;" parent="1" vertex="1">
          <mxGeometry x="240.5" y="640" width="159" height="80" as="geometry" />
        </mxCell>
        <mxCell id="14" value="yes" style="text;fontStyle=0;html=1;strokeColor=none;gradientColor=none;fillColor=none;strokeWidth=2;align=center;" parent="1" vertex="1">
          <mxGeometry x="320" y="447" width="40" height="26" as="geometry" />
        </mxCell>
        <mxCell id="15" value="联投广告位需要后续&lt;br&gt;考虑拆解" style="shape=mxgraph.flowchart.document;strokeWidth=2;gradientDirection=north;fontStyle=0;html=1;fillColor=#b1ddf0;strokeColor=#10739e;" parent="1" vertex="1">
          <mxGeometry x="480" y="515" width="140" height="70" as="geometry" />
        </mxCell>
        <mxCell id="16" value="" style="edgeStyle=elbowEdgeStyle;elbow=horizontal;fontStyle=1;strokeColor=#003366;strokeWidth=1;html=1;" parent="1" target="15" edge="1">
          <mxGeometry width="100" height="100" as="geometry">
            <mxPoint x="400" y="550" as="sourcePoint" />
            <mxPoint x="100" as="targetPoint" />
          </mxGeometry>
        </mxCell>
        <mxCell id="17" value="" style="edgeStyle=elbowEdgeStyle;elbow=horizontal;fontStyle=1;strokeColor=#003366;strokeWidth=1;html=1;" parent="1" source="4" target="13" edge="1">
          <mxGeometry width="100" height="100" as="geometry">
            <mxPoint y="100" as="sourcePoint" />
            <mxPoint x="100" as="targetPoint" />
          </mxGeometry>
        </mxCell>
        <mxCell id="21" value="" style="edgeStyle=elbowEdgeStyle;elbow=horizontal;fontStyle=1;strokeColor=#003366;strokeWidth=1;html=1;entryX=0.5;entryY=0;entryDx=0;entryDy=0;" parent="1" source="13" edge="1">
          <mxGeometry width="100" height="100" as="geometry">
            <mxPoint y="100" as="sourcePoint" />
            <mxPoint x="320" y="800" as="targetPoint" />
          </mxGeometry>
        </mxCell>
        <mxCell id="25" value="" style="edgeStyle=elbowEdgeStyle;elbow=horizontal;exitX=0.5;exitY=1;exitPerimeter=0;fontStyle=1;strokeColor=#003366;strokeWidth=1;html=1;exitDx=0;exitDy=0;" parent="1" source="noWKgFkb6oJTjKW2lA6C-62" edge="1">
          <mxGeometry x="-15" y="-1" width="100" height="100" as="geometry">
            <mxPoint x="305" y="1000" as="sourcePoint" />
            <mxPoint x="320" y="960" as="targetPoint" />
          </mxGeometry>
        </mxCell>
        <mxCell id="noWKgFkb6oJTjKW2lA6C-62" value="组装算法锁量接口&lt;br&gt;请求对象(订单整体)" style="shape=mxgraph.flowchart.data;strokeWidth=2;gradientDirection=north;fontStyle=0;html=1;fillColor=#b1ddf0;strokeColor=#10739e;" parent="1" vertex="1">
          <mxGeometry x="240.5" y="800" width="159" height="80" as="geometry" />
        </mxCell>
        <mxCell id="noWKgFkb6oJTjKW2lA6C-72" value="结束" style="shape=mxgraph.flowchart.terminator;strokeWidth=2;gradientColor=none;gradientDirection=north;fontStyle=0;html=1;" parent="1" vertex="1">
          <mxGeometry x="259" y="960" width="120" height="30" as="geometry" />
        </mxCell>
        <mxCell id="noWKgFkb6oJTjKW2lA6C-77" value="上报地址Path隔离&lt;br&gt;" style="rounded=1;whiteSpace=wrap;html=1;absoluteArcSize=1;arcSize=14;strokeWidth=2;fillColor=#1681B5;fontColor=#FFFFFF;strokeColor=#10739E;" parent="1" vertex="1">
          <mxGeometry x="240" y="640" width="159" height="80" as="geometry" />
        </mxCell>
        <mxCell id="noWKgFkb6oJTjKW2lA6C-79" value="获取biz工厂PB处理类" style="shape=mxgraph.flowchart.document;strokeWidth=2;gradientDirection=north;fontStyle=0;html=1;strokeColor=#82b366;fillColor=#d5e8d4;" parent="1" vertex="1">
          <mxGeometry x="479.5" y="515" width="140" height="70" as="geometry" />
        </mxCell>
        <mxCell id="O3qQAeO-0DIFtZuH8M05-53" value="" style="edgeStyle=orthogonalEdgeStyle;rounded=0;orthogonalLoop=1;jettySize=auto;html=1;exitX=0.5;exitY=1;exitDx=0;exitDy=0;" parent="1" source="O3qQAeO-0DIFtZuH8M05-52" target="5" edge="1">
          <mxGeometry relative="1" as="geometry">
            <mxPoint x="320" y="225" as="sourcePoint" />
          </mxGeometry>
        </mxCell>
        <mxCell id="O3qQAeO-0DIFtZuH8M05-52" value="&lt;span&gt;广告填充完毕&lt;/span&gt;" style="rounded=1;whiteSpace=wrap;html=1;absoluteArcSize=1;arcSize=14;strokeWidth=2;fillColor=#1681B5;fontColor=#FFFFFF;strokeColor=#10739E;" parent="1" vertex="1">
          <mxGeometry x="269" y="130" width="100" height="70" as="geometry" />
        </mxCell>
        <mxCell id="noWKgFkb6oJTjKW2lA6C-78" value="填充广告tracking列表" style="rounded=1;whiteSpace=wrap;html=1;absoluteArcSize=1;arcSize=14;strokeWidth=2;fillColor=#1681B5;fontColor=#FFFFFF;strokeColor=#10739E;" parent="1" vertex="1">
          <mxGeometry x="240" y="800" width="159" height="80" as="geometry" />
        </mxCell>
        <mxCell id="O3qQAeO-0DIFtZuH8M05-55" value="" style="edgeStyle=elbowEdgeStyle;elbow=horizontal;fontStyle=1;strokeColor=#003366;strokeWidth=1;html=1;" parent="1" target="15" edge="1">
          <mxGeometry width="100" height="100" as="geometry">
            <mxPoint x="400" y="550" as="sourcePoint" />
            <mxPoint x="480" y="550" as="targetPoint" />
            <Array as="points">
              <mxPoint x="440" y="840" />
            </Array>
          </mxGeometry>
        </mxCell>
        <mxCell id="O3qQAeO-0DIFtZuH8M05-56" value="获取biz对应数据Path" style="shape=mxgraph.flowchart.document;strokeWidth=2;gradientDirection=north;fontStyle=0;html=1;strokeColor=#82b366;fillColor=#d5e8d4;" parent="1" vertex="1">
          <mxGeometry x="480" y="650" width="140" height="70" as="geometry" />
        </mxCell>
        <mxCell id="O3qQAeO-0DIFtZuH8M05-58" value="" style="edgeStyle=elbowEdgeStyle;elbow=horizontal;fontStyle=1;strokeColor=#003366;strokeWidth=1;html=1;" parent="1" edge="1">
          <mxGeometry x="-1" y="129.5" width="100" height="100" as="geometry">
            <mxPoint x="399" y="679.5" as="sourcePoint" />
            <mxPoint x="479" y="679.5" as="targetPoint" />
            <Array as="points">
              <mxPoint x="439" y="969.5" />
            </Array>
          </mxGeometry>
        </mxCell>
      </root>
    </mxGraphModel>
  </diagram>
</mxfile>
